# xmcd
#
# Track frame offsets: 
#        150
#        15272
#        36767
#        60186
#        90645
#        105034
#        124166
#        145406
#        174155
#        194324
#        214041
#        228769
#
# Disc length: 3278 seconds
#
# Revision: 0
# Processed by: cddbd v1.5.2PL0 Copyright (c) Steve Scherf et al.
# Submitted via: ExactAudioCopy v0.95a4
#
DISCID=870ccc0c
DTITLE=Viktor Kopitkow's Panama - Million Miles Away
DYEAR=2009
DGENRE=Blues
TTITLE0=Still On My Way
TTITLE1=Wild Dogs
TTITLE2=Not More Than A Minute
TTITLE3=A Million Miles Away
TTITLE4=You Can't Run Away From Me
TTITLE5=Where Did Our Love Go
TTITLE6=Brothers
TTITLE7=Don't Know How To Carry On
TTITLE8=Show Me The Way
TTITLE9=Dance The Blues (The Night Away)
TTITLE10=Can't Buy A Thrill
TTITLE11=First Time Blues
EXTD=Year: 2009\n\n\n\n                                               
EXTD= www.panama-music.de\n\n\n\n                           
EXTD=                www.purple-haze-rockkeller.de
EXTT0=
EXTT1=
EXTT2=
EXTT3=
EXTT4=
EXTT5=
EXTT6=
EXTT7=
EXTT8=
EXTT9=
EXTT10=
EXTT11=
PLAYORDER=
